<svg xmlns="http://www.w3.org/2000/svg" xmlns:xlink="http://www.w3.org/1999/xlink" width="206" height="76" viewBox="0 0 206 76">
  <defs>
    <clipPath id="clip-logofenextjs_1">
      <rect width="206" height="76"/>
    </clipPath>
  </defs>
  <g id="logofenextjs_1" data-name="logofenextjs – 1" clip-path="url(#clip-logofenextjs_1)">
    <g id="Group_1" data-name="Group 1" transform="translate(-2 -6)">
      <rect id="Rectangle_2" data-name="Rectangle 2" width="200" height="64" rx="20" transform="translate(5 12)" fill="#fff"/>
      <g id="logo-fenext" transform="translate(19.152 24.58)">
        <rect id="Rectangle_1" data-name="Rectangle 1" width="62" height="38" rx="3" transform="translate(-0.152 0.42)" fill="#fff504"/>
        <path id="Path_1" data-name="Path 1" d="M3.563,27.715V2.273H21.452V7.838H10.47v4.373h9.889v5.566H10.47v9.939Zm18.331,0V2.273H40.23V7.838H28.8v4.373H39.286v5.566H28.8V22.15H40.18v5.566Z" transform="translate(7.248 4.777)"/>
        <path id="Path_2" data-name="Path 2" d="M38.576,2.5V27.944H32.812L23.619,14.577H23.47V27.944H16.563V2.5h5.864L31.47,15.819h.2V2.5Zm.819,25.443V2.5H57.731V8.067H46.3V12.44H56.787v5.566H46.3v4.373h11.38v5.566ZM66.113,2.5l4.174,7.4h.2L74.71,2.5h7.7l-7.6,12.721,7.9,12.721h-7.9l-4.323-7.553h-.2l-4.323,7.553H58.112l7.8-12.721L58.361,2.5ZM82.246,8.067V2.5h22.114V8.067H96.707V27.944H89.9V8.067ZM111.818,2.5h6.808V19.943a7.847,7.847,0,0,1-1.255,4.373,8.3,8.3,0,0,1-3.4,2.932,11.328,11.328,0,0,1-4.982,1.043,11.5,11.5,0,0,1-4.472-.845,7.1,7.1,0,0,1-3.23-2.683,8.49,8.49,0,0,1-1.193-4.771H107a4.5,4.5,0,0,0,.323,1.615,2.239,2.239,0,0,0,.82.994,2.452,2.452,0,0,0,1.292.323,2.342,2.342,0,0,0,1.292-.335,2.068,2.068,0,0,0,.808-.994,4.55,4.55,0,0,0,.286-1.652Zm21.348,7.951a2.684,2.684,0,0,0-.932-1.938,3.791,3.791,0,0,0-2.5-.7,4.977,4.977,0,0,0-1.752.261,2.107,2.107,0,0,0-.994.683,1.689,1.689,0,0,0-.335.994,1.632,1.632,0,0,0,.161.832,2.015,2.015,0,0,0,.621.658,4.874,4.874,0,0,0,1.081.522,11.617,11.617,0,0,0,1.565.422l2.087.447a15.7,15.7,0,0,1,3.615,1.18,8.6,8.6,0,0,1,2.46,1.727,6.16,6.16,0,0,1,1.4,2.211,7.8,7.8,0,0,1,.472,2.683,7.182,7.182,0,0,1-1.255,4.249,7.667,7.667,0,0,1-3.553,2.646,15.064,15.064,0,0,1-5.528.907A15.633,15.633,0,0,1,124,27.261a8.07,8.07,0,0,1-3.826-3.019A9.4,9.4,0,0,1,118.8,19h6.559a3.892,3.892,0,0,0,.584,1.963,3.252,3.252,0,0,0,1.466,1.205,5.747,5.747,0,0,0,2.274.41,5.422,5.422,0,0,0,1.851-.273,2.5,2.5,0,0,0,1.131-.758,1.789,1.789,0,0,0,.4-1.106,1.569,1.569,0,0,0-.385-1.019,2.981,2.981,0,0,0-1.193-.8,12.681,12.681,0,0,0-2.249-.671l-2.534-.547a11.678,11.678,0,0,1-5.329-2.447,5.949,5.949,0,0,1-1.926-4.708,7,7,0,0,1,1.292-4.236,8.645,8.645,0,0,1,3.64-2.845,13.28,13.28,0,0,1,5.355-1.019,12.694,12.694,0,0,1,5.33,1.031,7.969,7.969,0,0,1,3.466,2.907,7.807,7.807,0,0,1,1.243,4.361Z" transform="translate(32.147 4.549)"/>
      </g>
    </g>
  </g>
</svg>
